<svg xmlns="http://www.w3.org/2000/svg" xmlns:xlink="http://www.w3.org/1999/xlink" id="Layer_1" width="40" height="40" x="0" y="0" enable-background="new 0 0 100 100" version="1.1" viewBox="0 0 100 100" xml:space="preserve"><g stroke="#b0b0b0" stroke-width="7"><g><path d="M76.03,79.854c-0.979,0-1.958-0.373-2.704-1.12L21.184,26.592c-1.494-1.494-1.494-3.915,0-5.409 c1.494-1.493,3.915-1.493,5.409,0l52.143,52.142c1.494,1.494,1.494,3.915,0,5.409C77.988,79.481,77.01,79.854,76.03,79.854z"/></g><g><path d="M23.888,79.854c-0.979,0-1.958-0.373-2.704-1.12c-1.494-1.494-1.494-3.915,0-5.409l52.142-52.142 c1.493-1.493,3.915-1.493,5.409,0c1.494,1.494,1.494,3.915,0,5.409L26.593,78.734C25.846,79.481,24.867,79.854,23.888,79.854z"/></g></g><g fill="#000"><g><path d="M76.03,79.854c-0.979,0-1.958-0.373-2.704-1.12L21.184,26.592c-1.494-1.494-1.494-3.915,0-5.409 c1.494-1.493,3.915-1.493,5.409,0l52.143,52.142c1.494,1.494,1.494,3.915,0,5.409C77.988,79.481,77.01,79.854,76.03,79.854z"/></g><g><path d="M23.888,79.854c-0.979,0-1.958-0.373-2.704-1.12c-1.494-1.494-1.494-3.915,0-5.409l52.142-52.142 c1.493-1.493,3.915-1.493,5.409,0c1.494,1.494,1.494,3.915,0,5.409L26.593,78.734C25.846,79.481,24.867,79.854,23.888,79.854z"/></g></g></svg>